<svg width="80" height="80" viewBox="0 0 80 80" fill="none" xmlns="http://www.w3.org/2000/svg">
<g clip-path="url(#clip0_9_9)">
<path d="M2.66543 2.66667V0C2.29646 0.000171845 1.93154 0.07691 1.59376 0.225361C1.25597 0.373812 0.952667 0.590744 0.703029 0.862438C0.453392 1.13413 0.262852 1.45468 0.143463 1.80379C0.0240732 2.15291 -0.0215683 2.523 0.00942492 2.89067L2.66543 2.66667ZM77.3321 2.66667L79.9881 2.89067C80.0191 2.523 79.9734 2.15291 79.8541 1.80379C79.7347 1.45468 79.5441 1.13413 79.2945 0.862438C79.0449 0.590744 78.7416 0.373812 78.4038 0.225361C78.066 0.07691 77.7011 0.000171845 77.3321 0V2.66667ZM71.9988 66.6667L72.8414 69.1947C73.3365 69.0294 73.7722 68.7225 74.0946 68.312C74.4169 67.9016 74.6117 67.4055 74.6548 66.8853L71.9988 66.6667ZM39.9988 77.3333L39.1561 79.8613C39.7031 80.0435 40.2944 80.0435 40.8414 79.8613L39.9988 77.3333ZM7.99876 66.6667L5.34276 66.8853C5.38585 67.4055 5.58064 67.9016 5.90297 68.312C6.2253 68.7225 6.66101 69.0294 7.15609 69.1947L7.99876 66.6667ZM55.9988 18.6667H58.6654V16H55.9988V18.6667ZM55.9988 50.6667L56.8414 53.1947L58.6654 52.5867V50.6667H55.9988ZM39.9988 56L39.1561 58.528L39.9988 58.8107L40.8414 58.528L39.9988 56ZM23.9988 50.6667H21.3321V52.5867L23.1561 53.1947L23.9988 50.6667ZM2.66543 5.33333H77.3321V0L2.66543 0V5.33333ZM74.6761 2.44267L69.3428 66.4427L74.6548 66.8853L79.9881 2.89067L74.6761 2.44267ZM71.1561 64.1387L39.1561 74.8053L40.8414 79.8613L72.8414 69.1947L71.1561 64.1387ZM40.8414 74.8053L8.84142 64.1387L7.15609 69.1947L39.1561 79.8613L40.8414 74.8053ZM10.6548 66.448L5.32143 2.448L0.00942492 2.89067L5.34276 66.8853L10.6548 66.448ZM55.9988 16H21.3321V21.3333H55.9988V16ZM31.9988 37.3333H55.9988V32H31.9988V37.3333ZM53.3321 34.6667V50.6667H58.6654V34.6667H53.3321ZM55.1561 48.1387L39.1561 53.472L40.8414 58.528L56.8414 53.1947L55.1561 48.1387ZM40.8414 53.472L24.8414 48.1387L23.1561 53.1947L39.1561 58.528L40.8414 53.472ZM26.6654 50.6667V42.6667H21.3321V50.6667H26.6654ZM53.3321 18.6667V34.6667H58.6654V18.6667H53.3321Z" fill="white"/>
</g>
<defs>
<clipPath id="clip0_9_9">
<rect width="80" height="80" fill="white"/>
</clipPath>
</defs>
</svg>
