<svg width="80" height="80" viewBox="0 0 80 80" fill="none" xmlns="http://www.w3.org/2000/svg">
<g clip-path="url(#clip0_9_11)">
<path fill-rule="evenodd" clip-rule="evenodd" d="M0.704004 0.864C0.953534 0.591989 1.25682 0.374745 1.59466 0.226021C1.9325 0.0772974 2.29754 0.000332952 2.66667 0L77.3333 0C77.7023 0.000171845 78.0672 0.07691 78.405 0.225361C78.7428 0.373812 79.0461 0.590744 79.2957 0.862438C79.5454 1.13413 79.7359 1.45468 79.8553 1.80379C79.9747 2.15291 80.0203 2.523 79.9893 2.89067L74.656 66.4427C74.6119 66.9619 74.4167 67.4568 74.0944 67.8662C73.7721 68.2757 73.337 68.5818 72.8427 68.7467L40.8427 79.4133C40.2957 79.5955 39.7043 79.5955 39.1573 79.4133L7.15734 68.7467C6.66304 68.5818 6.22787 68.2757 5.9056 67.8662C5.58334 67.4568 5.3881 66.9619 5.344 66.4427L0.0106701 2.89067C-0.0201385 2.52328 0.0255689 2.15349 0.144906 1.80466C0.264243 1.45583 0.454616 1.13553 0.704004 0.864ZM58.6667 16H21.3333V21.3333H53.3333V32H32V37.3333H53.3333V48.7467L40 53.1893L26.6667 48.7467V42.6667H21.3333V52.5867L40 58.8107L58.6667 52.5867V16Z" fill="white"/>
</g>
<defs>
<clipPath id="clip0_9_11">
<rect width="80" height="80" fill="white"/>
</clipPath>
</defs>
</svg>
