<svg width="68" height="80" viewBox="0 0 68 80" fill="none" xmlns="http://www.w3.org/2000/svg">
<path d="M8.75 7.5C8.41848 7.5 8.10054 7.6317 7.86612 7.86612C7.6317 8.10054 7.5 8.41848 7.5 8.75V56.5C7.5 56.95 7.74 57.36 8.125 57.585L32.42 71.595C32.6057 71.7024 32.816 71.7602 33.0305 71.7629C33.2451 71.7655 33.4567 71.7128 33.645 71.61L59.35 57.525C59.5473 57.4171 59.7118 57.2579 59.8262 57.0643C59.9406 56.8707 60.0006 56.6499 60 56.425V8.75C60 8.41848 59.8683 8.10054 59.6339 7.86612C59.3995 7.6317 59.0815 7.5 58.75 7.5H8.75ZM0 8.75C0 3.92 3.92 0 8.75 0H58.75C63.58 0 67.5 3.92 67.5 8.75V56.43C67.4994 57.9985 67.0772 59.5379 66.2776 60.8873C65.4781 62.2366 64.3305 63.3462 62.955 64.1L37.25 78.185C35.9325 78.9081 34.451 79.2797 32.9482 79.2639C31.4454 79.2481 29.972 78.8456 28.67 78.095L4.38 64.08C3.04857 63.3125 1.94277 62.2078 1.17387 60.8772C0.404977 59.5465 0.000106585 58.0368 0 56.5V8.75ZM18.75 21.25C18.75 20.2554 19.1451 19.3016 19.8483 18.5983C20.5516 17.8951 21.5054 17.5 22.5 17.5H45.575C46.5696 17.5 47.5234 17.8951 48.2267 18.5983C48.9299 19.3016 49.325 20.2554 49.325 21.25C49.325 22.2446 48.9299 23.1984 48.2267 23.9017C47.5234 24.6049 46.5696 25 45.575 25H26.25V33.56H45.575C46.5696 33.56 47.5234 33.9551 48.2267 34.6583C48.9299 35.3616 49.325 36.3154 49.325 37.31V51.73C49.3254 52.4263 49.132 53.1089 48.7664 53.7015C48.4008 54.294 47.8775 54.7731 47.255 55.085L35.715 60.855C35.1948 61.1147 34.6214 61.2499 34.04 61.2499C33.4586 61.2499 32.8852 61.1147 32.365 60.855L20.825 55.085C20.2023 54.7742 19.6785 54.2962 19.312 53.7045C18.9455 53.1129 18.751 52.4309 18.75 51.735V48.845C18.75 47.8504 19.1451 46.8966 19.8483 46.1934C20.5516 45.4901 21.5054 45.095 22.5 45.095C23.4946 45.095 24.4484 45.4901 25.1517 46.1934C25.8549 46.8966 26.25 47.8504 26.25 48.845V49.415L34.04 53.31L41.825 49.41V41.06H22.5C21.5054 41.06 20.5516 40.6649 19.8483 39.9617C19.1451 39.2584 18.75 38.3046 18.75 37.31V21.25Z" fill="white"/>
</svg>
