<svg width="80" height="80" viewBox="0 0 80 80" fill="none" xmlns="http://www.w3.org/2000/svg">
<path d="M40 25C42.5 15.1313 51.9422 10.0922 72.5 10C72.8287 9.99878 73.1543 10.0626 73.4582 10.1878C73.7621 10.313 74.0382 10.4971 74.2705 10.7295C74.5029 10.9619 74.687 11.238 74.8122 11.5418C74.9374 11.8457 75.0013 12.1714 75 12.5V57.5C75 58.1631 74.7366 58.7989 74.2678 59.2678C73.7989 59.7366 73.1631 60 72.5 60C52.5 60 44.7735 64.0328 40 70M40 25C37.5 15.1313 28.0578 10.0922 7.50002 10C7.17137 9.99878 6.84572 10.0626 6.54184 10.1878C6.23797 10.313 5.96188 10.4971 5.72949 10.7295C5.49709 10.9619 5.31299 11.238 5.18779 11.5418C5.0626 11.8457 4.99878 12.1714 5.00002 12.5V57.1985C5.00002 58.7422 5.95627 60 7.50002 60C27.5 60 35.2547 64.0625 40 70M40 25V70" stroke="white" stroke-width="6" stroke-linecap="round" stroke-linejoin="round"/>
</svg>
