<svg width="80" height="80" viewBox="0 0 80 80" fill="none" xmlns="http://www.w3.org/2000/svg">
<g clip-path="url(#clip0_22_69)">
<path d="M61.25 0H18.75C8.39466 0 0 8.39466 0 18.75V61.25C0 71.6053 8.39466 80 18.75 80H61.25C71.6053 80 80 71.6053 80 61.25V18.75C80 8.39466 71.6053 0 61.25 0Z" fill="white"/>
<path d="M40.0004 45.9222C43.2204 45.9222 45.8304 43.3119 45.8304 40.0922C45.8304 36.8725 43.2204 34.2622 40.0004 34.2622C36.7804 34.2622 34.1704 36.8725 34.1704 40.0922C34.1704 43.3119 36.7807 45.9222 40.0004 45.9222Z" fill="#7A7B7B"/>
<path d="M40.0006 28.2384C47.8281 28.2384 55.0997 29.3615 60.5825 31.2493C67.1884 33.5234 71.25 36.9706 71.25 40.0922C71.25 43.345 66.9456 47.0072 59.8516 49.3575C54.4884 51.1343 47.4309 52.0618 40.0006 52.0618C32.3825 52.0618 25.1684 51.1912 19.7447 49.3378C12.8828 46.9925 8.75 43.2831 8.75 40.0922C8.75 36.9959 12.6281 33.5753 19.1412 31.3047C24.6444 29.3859 32.0953 28.2384 39.9994 28.2384H40.0006Z" stroke="#7A7B7B" stroke-width="5"/>
<path d="M29.6817 34.1994C33.5923 27.4187 38.1976 21.6806 42.572 17.8744C47.842 13.2878 52.8576 11.4916 55.5614 13.0506C58.3792 14.6756 59.4014 20.2344 57.8936 27.5537C56.7545 33.0872 54.0314 39.6641 50.3192 46.1009C46.5132 52.7003 42.1554 58.5147 37.8407 62.2859C32.381 67.0584 27.1026 68.7856 24.3386 67.1916C21.6564 65.6459 20.6307 60.5769 21.9176 53.8003C23.0048 48.0744 25.7332 41.0466 29.6804 34.1994H29.6817Z" stroke="#7A7B7B" stroke-width="5"/>
<path d="M29.6912 46.1182C25.7697 39.3451 23.0997 32.4882 21.9853 26.7976C20.6437 19.941 21.5922 14.6988 24.2937 13.1351C27.109 11.5051 32.435 13.3957 38.0231 18.3576C42.2481 22.1088 46.5865 27.7516 50.3093 34.1822C54.1262 40.7754 56.9868 47.4551 58.0997 53.0763C59.5078 60.1901 58.3681 65.6254 55.6065 67.2238C52.9272 68.7751 48.0237 67.1329 42.7953 62.6335C38.3778 58.8322 33.6515 52.9588 29.6912 46.1182Z" stroke="#7A7B7B" stroke-width="5"/>
</g>
<defs>
<clipPath id="clip0_22_69">
<rect width="80" height="80" fill="white"/>
</clipPath>
</defs>
</svg>
