<svg width="80" height="80" viewBox="0 0 80 80" fill="none" xmlns="http://www.w3.org/2000/svg">
<path d="M44.4467 53.5167L41.5867 57.4767C44.3 59.8967 47.6733 61.1067 51.7067 61.1067C54.7867 61.0333 57.1333 60.2389 58.7467 58.7233C60.3844 57.1833 61.2033 55.35 61.2033 53.2233C61.2033 51.1456 60.6289 49.4344 59.48 48.09C58.3311 46.7456 56.4 45.67 53.6867 44.8633C51.4422 44.1811 49.8533 43.5578 48.92 42.9933C47.9911 42.4067 47.5267 41.6978 47.5267 40.8667C47.5267 40.1111 47.9056 39.5 48.6633 39.0333C49.4233 38.5667 50.4378 38.3344 51.7067 38.3367C52.6378 38.3367 53.6889 38.52 54.86 38.8867C56.0333 39.2044 57.0722 39.7178 57.9767 40.4267L60.5433 36.43C58.2967 34.6211 55.3144 33.7167 51.5967 33.7167C48.9344 33.7167 46.7467 34.4011 45.0333 35.77C43.2733 37.1367 42.3933 38.8356 42.3933 40.8667C42.4178 43.0178 43.1267 44.6922 44.52 45.89C45.9378 47.09 47.9544 48.0678 50.57 48.8233C52.7478 49.5056 54.2267 50.19 55.0067 50.8767C55.3671 51.1837 55.6558 51.5661 55.8522 51.997C56.0486 52.4278 56.148 52.8965 56.1433 53.37C56.1616 53.8035 56.0667 54.2343 55.868 54.6201C55.6693 55.0058 55.3736 55.3332 55.01 55.57C54.2256 56.1078 53.1 56.3767 51.6333 56.3767C49.24 56.3989 46.8444 55.4456 44.4467 53.5167ZM26.0133 55.6433C25.2093 55.1349 24.5119 54.4748 23.96 53.7L20.5133 56.5233C21.5422 58.2567 22.8133 59.4667 24.3267 60.1533C25.7444 60.7867 27.37 61.1044 29.2033 61.1067C30.2033 61.1067 31.2422 60.9478 32.32 60.63C33.3978 60.3122 34.3878 59.7744 35.29 59.0167C36.8789 57.7456 37.71 55.6678 37.7833 52.7833V34.1567H32.8333V51.83C32.8333 53.5189 32.4556 54.7044 31.7 55.3867C30.94 56.0467 29.9856 56.3767 28.8367 56.3767C27.7367 56.3767 26.7956 56.1322 26.0133 55.6433ZM10 20C10 17.3478 11.0536 14.8043 12.9289 12.9289C14.8043 11.0536 17.3478 10 20 10H60C62.6522 10 65.1957 11.0536 67.0711 12.9289C68.9464 14.8043 70 17.3478 70 20V60C70 62.6522 68.9464 65.1957 67.0711 67.0711C65.1957 68.9464 62.6522 70 60 70H20C17.3478 70 14.8043 68.9464 12.9289 67.0711C11.0536 65.1957 10 62.6522 10 60V20ZM20 16.6667C19.1159 16.6667 18.2681 17.0179 17.643 17.643C17.0179 18.2681 16.6667 19.1159 16.6667 20V60C16.6667 60.8841 17.0179 61.7319 17.643 62.357C18.2681 62.9821 19.1159 63.3333 20 63.3333H60C60.8841 63.3333 61.7319 62.9821 62.357 62.357C62.9821 61.7319 63.3333 60.8841 63.3333 60V20C63.3333 19.1159 62.9821 18.2681 62.357 17.643C61.7319 17.0179 60.8841 16.6667 60 16.6667H20Z" fill="white"/>
</svg>
