<svg width="80" height="80" viewBox="0 0 80 80" fill="none" xmlns="http://www.w3.org/2000/svg">
<path d="M60 68.3333H36.5534C36.2686 70.1898 35.4564 71.9253 34.2134 73.3333H60C61.7682 73.3333 63.4638 72.6309 64.7141 71.3807C65.9643 70.1304 66.6667 68.4347 66.6667 66.6666V32.76C66.6663 30.992 65.9637 29.2966 64.7134 28.0466L45.2834 8.61996L45.12 8.48663L45 8.38663C44.7712 8.16961 44.5273 7.96911 44.27 7.78663C44.1834 7.7337 44.0944 7.68476 44.0034 7.63996L43.8434 7.55996L43.6767 7.46329C43.4967 7.35996 43.3134 7.25329 43.1234 7.17329C42.4592 6.90946 41.7569 6.75415 41.0434 6.71329C40.9767 6.70885 40.9111 6.70107 40.8467 6.68996L40.5734 6.66663H20C18.2319 6.66663 16.5362 7.369 15.286 8.61925C14.0358 9.86949 13.3334 11.5652 13.3334 13.3333V46.7266C13.6067 46.6866 13.8845 46.6666 14.1667 46.6666C15.8 46.6666 17.2734 47.3366 18.3334 48.4166V13.3333C18.3334 12.8913 18.509 12.4673 18.8215 12.1548C19.1341 11.8422 19.558 11.6666 20 11.6666H40V26.6666C40 28.4347 40.7024 30.1304 41.9527 31.3807C43.2029 32.6309 44.8986 33.3333 46.6667 33.3333H61.6667V66.6666C61.6667 67.1087 61.4911 67.5326 61.1786 67.8451C60.866 68.1577 60.4421 68.3333 60 68.3333ZM57.9267 28.3333H46.6667C46.2247 28.3333 45.8008 28.1577 45.4882 27.8451C45.1756 27.5326 45 27.1087 45 26.6666V15.4033L57.9267 28.3333ZM14.1667 50C14.8297 50 15.4656 50.2634 15.9345 50.7322C16.4033 51.201 16.6667 51.8369 16.6667 52.5V66.6666C16.6667 68.4347 15.9643 70.1304 14.7141 71.3807C13.4638 72.6309 11.7682 73.3333 10 73.3333C8.23193 73.3333 6.53624 72.6309 5.286 71.3807C4.03575 70.1304 3.33337 68.4347 3.33337 66.6666V65.8333C3.33337 65.1702 3.59677 64.5344 4.06561 64.0655C4.53445 63.5967 5.17033 63.3333 5.83337 63.3333C6.49642 63.3333 7.1323 63.5967 7.60114 64.0655C8.06998 64.5344 8.33337 65.1702 8.33337 65.8333V66.6666C8.33337 67.1087 8.50897 67.5326 8.82153 67.8451C9.13409 68.1577 9.55801 68.3333 10 68.3333C10.4421 68.3333 10.866 68.1577 11.1786 67.8451C11.4911 67.5326 11.6667 67.1087 11.6667 66.6666V52.5C11.6667 51.8369 11.9301 51.201 12.3989 50.7322C12.8678 50.2634 13.5037 50 14.1667 50ZM26.5 50C24.7761 50 23.1228 50.6848 21.9038 51.9038C20.6849 53.1228 20 54.7761 20 56.5V57.28C20 59.3266 21.0767 61.2266 22.8334 62.28L27.93 65.34C28.053 65.414 28.1548 65.5186 28.2254 65.6436C28.2961 65.7686 28.3333 65.9097 28.3334 66.0533V66.8333C28.3334 67.2311 28.1753 67.6126 27.894 67.894C27.6127 68.1753 27.2312 68.3333 26.8334 68.3333H26.5C26.1022 68.3333 25.7207 68.1753 25.4394 67.894C25.1581 67.6126 25 67.2311 25 66.8333V66.6666C25 66.0036 24.7366 65.3677 24.2678 64.8989C23.799 64.43 23.1631 64.1666 22.5 64.1666C21.837 64.1666 21.2011 64.43 20.7323 64.8989C20.2634 65.3677 20 66.0036 20 66.6666V66.8333C20 68.5572 20.6849 70.2105 21.9038 71.4295C23.1228 72.6485 24.7761 73.3333 26.5 73.3333H26.8334C28.5573 73.3333 30.2106 72.6485 31.4296 71.4295C32.6486 70.2105 33.3334 68.5572 33.3334 66.8333V66.0533C33.3329 65.0462 33.0717 64.0564 32.5752 63.1802C32.0787 62.304 31.3637 61.5712 30.5 61.0533L25.4034 57.9933C25.2804 57.9192 25.1786 57.8146 25.108 57.6896C25.0373 57.5646 25.0001 57.4235 25 57.28V56.5C25 56.1021 25.1581 55.7206 25.4394 55.4393C25.7207 55.158 26.1022 55 26.5 55H26.8334C27.2312 55 27.6127 55.158 27.894 55.4393C28.1753 55.7206 28.3334 56.1021 28.3334 56.5V56.6666C28.3334 57.3297 28.5968 57.9656 29.0656 58.4344C29.5344 58.9032 30.1703 59.1666 30.8334 59.1666C31.4964 59.1666 32.1323 58.9032 32.6011 58.4344C33.07 57.9656 33.3334 57.3297 33.3334 56.6666V56.5C33.3334 54.7761 32.6486 53.1228 31.4296 51.9038C30.2106 50.6848 28.5573 50 26.8334 50H26.5Z" fill="white"/>
</svg>
