<svg width="80" height="80" viewBox="0 0 80 80" fill="none" xmlns="http://www.w3.org/2000/svg">
<g clip-path="url(#clip0_8_367)">
<path d="M39.9999 26.6666V6.66663H19.9999C18.2318 6.66663 16.5361 7.369 15.2859 8.61925C14.0356 9.86949 13.3333 11.5652 13.3333 13.3333V46.7266C13.6066 46.6866 13.8844 46.6666 14.1666 46.6666C15.2279 46.666 16.2693 46.955 17.1786 47.5025C18.0878 48.0499 18.8305 48.835 19.3266 49.7733C20.2451 48.791 21.356 48.0082 22.5901 47.4738C23.8242 46.9393 25.1551 46.6645 26.4999 46.6666H26.8333C29.4412 46.6666 31.9424 47.7026 33.7865 49.5467C35.6306 51.3908 36.6666 53.892 36.6666 56.5V56.6666C36.6666 58.1666 36.0999 59.5333 35.1666 60.5666C36.1266 62.03 36.6666 63.7666 36.6666 65.59V66.8333C36.6666 69.3233 35.7399 71.6 34.2133 73.3333H59.9999C61.768 73.3333 63.4637 72.6309 64.714 71.3807C65.9642 70.1304 66.6666 68.4347 66.6666 66.6666V33.3333H46.6666C44.8985 33.3333 43.2028 32.6309 41.9525 31.3807C40.7023 30.1304 39.9999 28.4347 39.9999 26.6666ZM44.9999 26.6666V8.33329L64.9999 28.3333H46.6666C46.2246 28.3333 45.8006 28.1577 45.4881 27.8451C45.1755 27.5326 44.9999 27.1087 44.9999 26.6666ZM14.1666 50C14.8296 50 15.4655 50.2634 15.9344 50.7322C16.4032 51.201 16.6666 51.8369 16.6666 52.5V66.6666C16.6666 68.4347 15.9642 70.1304 14.714 71.3807C13.4637 72.6309 11.768 73.3333 9.99992 73.3333C8.23181 73.3333 6.53612 72.6309 5.28587 71.3807C4.03563 70.1304 3.33325 68.4347 3.33325 66.6666V65.8333C3.33325 65.1702 3.59664 64.5344 4.06549 64.0655C4.53433 63.5967 5.17021 63.3333 5.83325 63.3333C6.49629 63.3333 7.13218 63.5967 7.60102 64.0655C8.06986 64.5344 8.33325 65.1702 8.33325 65.8333V66.6666C8.33325 67.1087 8.50885 67.5326 8.82141 67.8451C9.13397 68.1577 9.55789 68.3333 9.99992 68.3333C10.4419 68.3333 10.8659 68.1577 11.1784 67.8451C11.491 67.5326 11.6666 67.1087 11.6666 66.6666V52.5C11.6666 51.8369 11.93 51.201 12.3988 50.7322C12.8677 50.2634 13.5035 50 14.1666 50ZM26.4999 50C24.776 50 23.1227 50.6848 21.9037 51.9038C20.6847 53.1228 19.9999 54.7761 19.9999 56.5V57.28C19.9999 59.3266 21.0766 61.2266 22.8333 62.28L27.9299 65.34C28.0529 65.414 28.1547 65.5186 28.2253 65.6436C28.296 65.7686 28.3332 65.9097 28.3333 66.0533V66.8333C28.3333 67.2311 28.1752 67.6126 27.8939 67.894C27.6126 68.1753 27.2311 68.3333 26.8333 68.3333H26.4999C26.1021 68.3333 25.7206 68.1753 25.4393 67.894C25.158 67.6126 24.9999 67.2311 24.9999 66.8333V66.6666C24.9999 66.0036 24.7365 65.3677 24.2677 64.8989C23.7988 64.43 23.163 64.1666 22.4999 64.1666C21.8369 64.1666 21.201 64.43 20.7322 64.8989C20.2633 65.3677 19.9999 66.0036 19.9999 66.6666V66.8333C19.9999 68.5572 20.6847 70.2105 21.9037 71.4295C23.1227 72.6485 24.776 73.3333 26.4999 73.3333H26.8333C28.5572 73.3333 30.2105 72.6485 31.4294 71.4295C32.6484 70.2105 33.3333 68.5572 33.3333 66.8333V66.0533C33.3328 65.0462 33.0716 64.0564 32.575 63.1802C32.0785 62.304 31.3636 61.5712 30.4999 61.0533L25.4033 57.9933C25.2803 57.9192 25.1785 57.8146 25.1078 57.6896C25.0372 57.5646 25 57.4235 24.9999 57.28V56.5C24.9999 56.1021 25.158 55.7206 25.4393 55.4393C25.7206 55.158 26.1021 55 26.4999 55H26.8333C27.2311 55 27.6126 55.158 27.8939 55.4393C28.1752 55.7206 28.3333 56.1021 28.3333 56.5V56.6666C28.3333 57.3297 28.5966 57.9656 29.0655 58.4344C29.5343 58.9032 30.1702 59.1666 30.8333 59.1666C31.4963 59.1666 32.1322 58.9032 32.601 58.4344C33.0699 57.9656 33.3333 57.3297 33.3333 56.6666V56.5C33.3333 54.7761 32.6484 53.1228 31.4294 51.9038C30.2105 50.6848 28.5572 50 26.8333 50H26.4999Z" fill="white"/>
</g>
<defs>
<clipPath id="clip0_8_367">
<rect width="80" height="80" fill="white"/>
</clipPath>
</defs>
</svg>
