<svg width="80" height="80" viewBox="0 0 80 80" fill="none" xmlns="http://www.w3.org/2000/svg">
<path d="M28.3335 51.6666V48.3333H31.6668V51.6666H28.3335Z" fill="white"/>
<path fill-rule="evenodd" clip-rule="evenodd" d="M33.3334 6.66663C32.0073 6.66663 30.7356 7.19341 29.7979 8.13109C28.8602 9.06877 28.3334 10.3405 28.3334 11.6666H21.6667C20.3407 11.6666 19.0689 12.1934 18.1312 13.1311C17.1935 14.0688 16.6667 15.3405 16.6667 16.6666V68.3333C16.6667 69.6594 17.1935 70.9311 18.1312 71.8688C19.0689 72.8065 20.3407 73.3333 21.6667 73.3333H58.3334C59.6595 73.3333 60.9313 72.8065 61.8689 71.8688C62.8066 70.9311 63.3334 69.6594 63.3334 68.3333V16.6666C63.3334 15.3405 62.8066 14.0688 61.8689 13.1311C60.9313 12.1934 59.6595 11.6666 58.3334 11.6666H51.6667C51.6667 10.3405 51.14 9.06877 50.2023 8.13109C49.2646 7.19341 47.9928 6.66663 46.6667 6.66663H33.3334ZM31.6667 11.6666C31.6667 11.2246 31.8423 10.8007 32.1549 10.4881C32.4675 10.1756 32.8914 9.99996 33.3334 9.99996H46.6667C47.1088 9.99996 47.5327 10.1756 47.8453 10.4881C48.1578 10.8007 48.3334 11.2246 48.3334 11.6666V15C48.3334 15.442 48.1578 15.8659 47.8453 16.1785C47.5327 16.491 47.1088 16.6666 46.6667 16.6666H33.3334C32.8914 16.6666 32.4675 16.491 32.1549 16.1785C31.8423 15.8659 31.6667 15.442 31.6667 15V11.6666ZM26.6667 33.3333C26.2247 33.3333 25.8008 33.5089 25.4882 33.8214C25.1757 34.134 25.0001 34.5579 25.0001 35C25.0001 35.442 25.1757 35.8659 25.4882 36.1785C25.8008 36.491 26.2247 36.6666 26.6667 36.6666H38.3334C38.7754 36.6666 39.1994 36.491 39.5119 36.1785C39.8245 35.8659 40.0001 35.442 40.0001 35C40.0001 34.5579 39.8245 34.134 39.5119 33.8214C39.1994 33.5089 38.7754 33.3333 38.3334 33.3333H26.6667ZM25.0001 26.6666C25.0001 26.2246 25.1757 25.8007 25.4882 25.4881C25.8008 25.1756 26.2247 25 26.6667 25H52.5001C52.9421 25 53.366 25.1756 53.6786 25.4881C53.9912 25.8007 54.1667 26.2246 54.1667 26.6666C54.1667 27.1087 53.9912 27.5326 53.6786 27.8451C53.366 28.1577 52.9421 28.3333 52.5001 28.3333H26.6667C26.2247 28.3333 25.8008 28.1577 25.4882 27.8451C25.1757 27.5326 25.0001 27.1087 25.0001 26.6666ZM25.0001 46.6666C25.0001 46.2246 25.1757 45.8007 25.4882 45.4881C25.8008 45.1756 26.2247 45 26.6667 45H33.3334C33.7754 45 34.1994 45.1756 34.5119 45.4881C34.8245 45.8007 35.0001 46.2246 35.0001 46.6666V53.3333C35.0001 53.7753 34.8245 54.1992 34.5119 54.5118C34.1994 54.8244 33.7754 55 33.3334 55H26.6667C26.2247 55 25.8008 54.8244 25.4882 54.5118C25.1757 54.1992 25.0001 53.7753 25.0001 53.3333V46.6666ZM46.6667 53.3333C47.9928 53.3333 49.2646 52.8065 50.2023 51.8688C51.14 50.9311 51.6667 49.6594 51.6667 48.3333C51.6667 47.0072 51.14 45.7354 50.2023 44.7978C49.2646 43.8601 47.9928 43.3333 46.6667 43.3333C45.3407 43.3333 44.0689 43.8601 43.1312 44.7978C42.1935 45.7354 41.6667 47.0072 41.6667 48.3333C41.6667 49.6594 42.1935 50.9311 43.1312 51.8688C44.0689 52.8065 45.3407 53.3333 46.6667 53.3333ZM36.6667 60.8333C36.6667 57.3066 43.3284 55.53 46.6667 55.53C50.0051 55.53 56.6667 57.3066 56.6667 60.8333V65H36.6667V60.8333Z" fill="white"/>
</svg>
