<svg width="80" height="80" viewBox="0 0 80 80" fill="none" xmlns="http://www.w3.org/2000/svg">
<path d="M26.6667 33.3333C26.2246 33.3333 25.8007 33.5089 25.4882 33.8215C25.1756 34.134 25 34.558 25 35C25 35.442 25.1756 35.866 25.4882 36.1785C25.8007 36.4911 26.2246 36.6667 26.6667 36.6667H38.3333C38.7754 36.6667 39.1993 36.4911 39.5118 36.1785C39.8244 35.866 40 35.442 40 35C40 34.558 39.8244 34.134 39.5118 33.8215C39.1993 33.5089 38.7754 33.3333 38.3333 33.3333H26.6667ZM25 26.6667C25 26.2246 25.1756 25.8007 25.4882 25.4882C25.8007 25.1756 26.2246 25 26.6667 25H52.5C52.942 25 53.366 25.1756 53.6785 25.4882C53.9911 25.8007 54.1667 26.2246 54.1667 26.6667C54.1667 27.1087 53.9911 27.5326 53.6785 27.8452C53.366 28.1577 52.942 28.3333 52.5 28.3333H26.6667C26.2246 28.3333 25.8007 28.1577 25.4882 27.8452C25.1756 27.5326 25 27.1087 25 26.6667Z" fill="white"/>
<path fill-rule="evenodd" clip-rule="evenodd" d="M25 46.6666C25 46.2246 25.1756 45.8007 25.4882 45.4881C25.8007 45.1756 26.2246 45 26.6667 45H33.3333C33.7754 45 34.1993 45.1756 34.5118 45.4881C34.8244 45.8007 35 46.2246 35 46.6666V53.3333C35 53.7753 34.8244 54.1992 34.5118 54.5118C34.1993 54.8244 33.7754 55 33.3333 55H26.6667C26.2246 55 25.8007 54.8244 25.4882 54.5118C25.1756 54.1992 25 53.7753 25 53.3333V46.6666ZM28.3333 51.6666V48.3333H31.6667V51.6666H28.3333ZM46.6667 51.6666C47.9927 51.6666 49.2645 51.1398 50.2022 50.2022C51.1399 49.2645 51.6667 47.9927 51.6667 46.6666C51.6667 45.3405 51.1399 44.0688 50.2022 43.1311C49.2645 42.1934 47.9927 41.6666 46.6667 41.6666C45.3406 41.6666 44.0688 42.1934 43.1311 43.1311C42.1934 44.0688 41.6667 45.3405 41.6667 46.6666C41.6667 47.9927 42.1934 49.2645 43.1311 50.2022C44.0688 51.1398 45.3406 51.6666 46.6667 51.6666ZM46.6667 48.3333C46.8916 48.3436 47.1162 48.3082 47.3271 48.2293C47.5379 48.1503 47.7306 48.0295 47.8935 47.8741C48.0564 47.7186 48.1861 47.5318 48.2747 47.3249C48.3634 47.1179 48.4093 46.8952 48.4095 46.67C48.4097 46.4449 48.3643 46.222 48.2761 46.0149C48.1878 45.8078 48.0585 45.6207 47.8959 45.465C47.7333 45.3092 47.5409 45.188 47.3302 45.1086C47.1195 45.0293 46.8949 44.9935 46.67 45.0033C46.2413 45.022 45.8363 45.2054 45.5394 45.5153C45.2425 45.8251 45.0766 46.2376 45.0762 46.6667C45.0757 47.0958 45.2408 47.5086 45.5371 47.819C45.8334 48.1295 46.238 48.3137 46.6667 48.3333ZM36.6667 58.6366C36.6667 55.11 43.3283 53.3333 46.6667 53.3333C50.005 53.3333 56.6667 55.11 56.6667 58.6366V65H36.6667V58.6366ZM40.0917 58.7033L40 58.7983V61.6666H53.3333V58.8L53.2417 58.7016C52.9683 58.435 52.4417 58.0816 51.615 57.73C49.9483 57.0216 47.8917 56.6666 46.6667 56.6666C45.4417 56.6666 43.385 57.0216 41.7183 57.73C40.8917 58.08 40.365 58.4366 40.0917 58.7033Z" fill="white"/>
<path fill-rule="evenodd" clip-rule="evenodd" d="M28.3334 11.6666C28.3334 10.3405 28.8602 9.06877 29.7979 8.13109C30.7356 7.19341 32.0073 6.66663 33.3334 6.66663H46.6667C47.9928 6.66663 49.2646 7.19341 50.2023 8.13109C51.14 9.06877 51.6667 10.3405 51.6667 11.6666H58.3334C59.6595 11.6666 60.9313 12.1934 61.8689 13.1311C62.8066 14.0688 63.3334 15.3405 63.3334 16.6666V68.3333C63.3334 69.6594 62.8066 70.9311 61.8689 71.8688C60.9313 72.8065 59.6595 73.3333 58.3334 73.3333H21.6667C20.3407 73.3333 19.0689 72.8065 18.1312 71.8688C17.1935 70.9311 16.6667 69.6594 16.6667 68.3333V16.6666C16.6667 15.3405 17.1935 14.0688 18.1312 13.1311C19.0689 12.1934 20.3407 11.6666 21.6667 11.6666H28.3334ZM46.6667 20C47.9928 20 49.2646 19.4732 50.2023 18.5355C51.14 17.5978 51.6667 16.326 51.6667 15H58.3334C58.7754 15 59.1994 15.1756 59.5119 15.4881C59.8245 15.8007 60.0001 16.2246 60.0001 16.6666V68.3333C60.0001 68.7753 59.8245 69.1992 59.5119 69.5118C59.1994 69.8244 58.7754 70 58.3334 70H21.6667C21.2247 70 20.8008 69.8244 20.4882 69.5118C20.1757 69.1992 20.0001 68.7753 20.0001 68.3333V16.6666C20.0001 16.2246 20.1757 15.8007 20.4882 15.4881C20.8008 15.1756 21.2247 15 21.6667 15H28.3334C28.3334 16.326 28.8602 17.5978 29.7979 18.5355C30.7356 19.4732 32.0073 20 33.3334 20H46.6667ZM33.3334 9.99996C32.8914 9.99996 32.4675 10.1756 32.1549 10.4881C31.8423 10.8007 31.6667 11.2246 31.6667 11.6666V15C31.6667 15.442 31.8423 15.8659 32.1549 16.1785C32.4675 16.491 32.8914 16.6666 33.3334 16.6666H46.6667C47.1088 16.6666 47.5327 16.491 47.8453 16.1785C48.1578 15.8659 48.3334 15.442 48.3334 15V11.6666C48.3334 11.2246 48.1578 10.8007 47.8453 10.4881C47.5327 10.1756 47.1088 9.99996 46.6667 9.99996H33.3334Z" fill="white"/>
</svg>
