<svg width="80" height="80" viewBox="0 0 80 80" fill="none" xmlns="http://www.w3.org/2000/svg">
<path d="M73.3333 40C73.3333 21.59 58.41 6.66663 40 6.66663C21.59 6.66663 6.66666 21.59 6.66666 40C6.66666 58.41 21.59 73.3333 40 73.3333" stroke="white" stroke-width="6" stroke-linecap="round" stroke-linejoin="round"/>
<path d="M66.6667 18.9966C63.55 19.22 59.56 20.43 56.7933 24.01C51.7933 30.4766 46.7967 31.02 43.4633 28.8633C38.4633 25.63 42.6667 20.3866 36.8 17.54C32.9767 15.6833 32.4433 10.6333 34.5733 6.66663M6.66666 36.6666C9.21 38.8733 12.7667 40.8933 16.9633 40.8933C25.63 40.8933 27.3633 42.55 27.3633 49.1733C27.3633 55.7966 27.3633 55.7966 29.0967 60.7633C30.2233 63.9966 30.6167 67.2233 28.37 70M66.33 66.43L73.3333 73.3333M70.36 56.82C70.3582 58.5928 70.0073 60.3479 69.3273 61.9852C68.6472 63.6224 67.6513 65.1096 66.3965 66.362C65.1417 67.6143 63.6525 68.6073 62.0139 69.2841C60.3753 69.9609 58.6195 70.3084 56.8467 70.3066C55.0738 70.3084 53.318 69.9609 51.6794 69.2841C50.0409 68.6073 48.5516 67.6143 47.2968 66.362C46.042 65.1096 45.0461 63.6224 44.3661 61.9852C43.686 60.3479 43.3351 58.5928 43.3333 56.82C43.3351 55.0471 43.686 53.292 44.3661 51.6547C45.0461 50.0175 46.042 48.5303 47.2968 47.2779C48.5516 46.0256 50.0409 45.0326 51.6794 44.3558C53.318 43.679 55.0738 43.3315 56.8467 43.3333C58.6195 43.3315 60.3753 43.679 62.0139 44.3558C63.6525 45.0326 65.1417 46.0256 66.3965 47.2779C67.6513 48.5303 68.6472 50.0175 69.3273 51.6547C70.0073 53.292 70.3582 55.0471 70.36 56.82Z" stroke="white" stroke-width="6" stroke-linecap="round" stroke-linejoin="round"/>
</svg>
