<svg width="87" height="113" viewBox="0 0 87 113" fill="none" xmlns="http://www.w3.org/2000/svg">
<path fill-rule="evenodd" clip-rule="evenodd" d="M30.525 25.9333C31.8071 25.5063 33.193 25.5063 34.475 25.9333L57.5 33.6083L79.5375 26.2625C80.3517 25.9912 81.2186 25.9172 82.0669 26.0466C82.9152 26.176 83.7207 26.5051 84.4169 27.0068C85.1131 27.5085 85.6801 28.1684 86.0713 28.9322C86.4624 29.696 86.6665 30.5418 86.6667 31.4V86.5C86.6666 87.8119 86.2536 89.0905 85.4864 90.1547C84.7191 91.2188 83.6364 92.0146 82.3917 92.4291L59.475 100.067C58.1917 100.496 56.8084 100.496 55.525 100.067L32.5 92.3916L10.4625 99.7375C9.64842 100.009 8.7815 100.083 7.93318 99.9533C7.08486 99.8239 6.27943 99.4948 5.58323 98.9931C4.88703 98.4914 4.32 97.8315 3.92884 97.0677C3.53768 96.3039 3.33359 95.4581 3.33337 94.6V39.5C3.3335 38.188 3.74645 36.9094 4.51372 35.8453C5.28099 34.7811 6.36368 33.9854 7.60837 33.5708L30.525 25.9333ZM28.3334 85V35.4458L11.6667 41.0041V90.5541L28.3334 84.9958V85ZM36.6667 35.45V85L53.3334 90.5583V41L36.6667 35.4416V35.45ZM61.6667 41.0083V90.5583L78.3334 85V35.4458L61.6667 41.0083Z" fill="#1F5F61"/>
<path d="M20 3.33337C12.6483 3.33337 6.66664 9.31504 6.66664 16.6584C6.61831 27.4 19.4933 36.3067 20 36.6667C20 36.6667 33.3816 27.4 33.3333 16.6667C33.3333 9.31504 27.3516 3.33337 20 3.33337ZM20 23.3334C16.3166 23.3334 13.3333 20.35 13.3333 16.6667C13.3333 12.9834 16.3166 10 20 10C23.6833 10 26.6666 12.9834 26.6666 16.6667C26.6666 20.35 23.6833 23.3334 20 23.3334Z" fill="white"/>
</svg>
